<svg xmlns="http://www.w3.org/2000/svg" width="24" height="24" viewBox="0 0 24 24" class="v-mid">
    <path fill="#8C6FA9" d="M12 0C5.373 0 0 5.373 0 12s5.373 12 12 12 12-5.373 12-12S18.627 0 12 0zm6.155 7.988l-7.451 9.562c-.06.059-.156.188-.274.188-.123 0-.203-.086-.273-.156S5.93 13.516 5.93 13.516l-.08-.08a.314.314 0 0 1-.059-.172c0-.064.027-.123.059-.171a444.554 444.554 0 0 1 1.36-1.43c.07-.07.13-.161.258-.161.134 0 .22.112.284.177.064.064 2.41 2.32 2.41 2.32l5.963-7.662a.306.306 0 0 1 .188-.075.3.3 0 0 1 .187.07l1.64 1.291a.3.3 0 0 1 .069.188.278.278 0 0 1-.054.177z"></path>
</svg>