<?xml version="1.0" encoding="UTF-8" standalone="no"?>
<svg xmlns="http://www.w3.org/2000/svg" width="470px" height="470px" viewBox="0 0 470 470">
   <g id="kangaroo" style="fill:#1c3988;fill-rule:nonzero;stroke:none;stroke-width:1" transform="translate(117.05323,-117.94677)">
      <g id="path" transform="matrix(-0.5,0,0,0.5,352.5,117.5)">
         <path d="m 110.11064,174.814 c 0,0 33.45763,112.5 105.15255,174 l -41.74238,36.6 c -2.86779,2.5 -4.03616,6.399 -2.86779,9.899 4.88587,14.601 22.4113,51 75.51864,51 49.07119,0 63.19774,-34.3 67.12769,-52.199 1.27351,-5.7 -3.08023,-11.101 -9.13553,-11.601 l -21.13566,-1.7 c -5.20452,-0.399 -9.87903,2.9 -10.94118,7.7 -2.44294,11.601 -10.62147,30.2 -38.66108,22.2 -39.61808,-11.3 96.97401,-80 96.97401,-80 0,0 36.43164,22.8 86.7774,39.3 0.84972,-2.2 1.69944,-4.3 2.54809,-6.6 8.70961,-22.2 22.09372,-43.7 39.08807,-61.2 19.22486,-20 42.90967,-33 70.31306,-40 -5.31073,1.4 -11.57634,6.5 -16.03842,9.5 -6.58531,4.4 -12.53333,9.6 -17.95028,15.2 -10.94011,11.3 -19.43729,24.6 -25.59774,38.7 -10.62147,24.6 -16.35706,54.8 -13.7017,81.4 4.35587,44.101 20.71187,132.7 82.31639,193.601 84.97175,84 81.78531,103 46.73446,204 -24.96045,71.8 -6.37288,112.8 6.48016,130.5 4.14131,5.699 12.95819,5.6 16.99435,-0.101 l 13.27684,-18.8 c 1.48594,-2.2 2.01701,-4.8 1.48594,-7.3 -3.39781,-15.7 -9.77069,-80.9 77.32536,-202.2 2.54809,-3.5 2.33566,-8.2 -0.53108,-11.5 -18.3762,-21.2 -82.31638,-100.4 -89.64519,-188.5 -8.49718,-103 89.22033,-96 103.02824,-186 0,0 94.31865,68.7 86.35255,253.2 -7.85883,181 8.92203,284.1 125.44061,329 4.03616,1.5 8.60339,0.5 11.47118,-2.5 4.03616,-4.2 3.29266,-10.8 -1.487,-14.2 -28.67797,-20 -109.29492,-98.9 -58.94916,-333.3 60.54238,-282 -227.8305,-433.5 -374.40677,-433.5 -146.57628,0 -274.0339,112.5 -304.30509,0 0,0 67.76497,-26.4 71.5887,-108.4 0.21137,-5.7 -4.67344,-10.3 -10.72874,-10 -26.65989,1 -94.95594,10 -116.62373,73.5 l -65.959325,11 c -3.6113,0.6 -6.585311,2.9 -7.859887,6.1 l -10.833899,27.2 c -0.955932,2.3 -2.761582,4.2 -5.098305,5.3 l -45.9909601,21.1 c -5.62937853,2.6 -7.5412429,9.2 -4.0361582,14 9.5603843,13.401 36.3254233,33.501 108.2327643,15.601 z" />
      </g>
   </g>
</svg>
